<svg xmlns="http://www.w3.org/2000/svg" xmlns:xlink="http://www.w3.org/1999/xlink" viewBox="0 0 930.92 244.12"><defs><style>.cls-1{fill:url(#linear-gradient);}.cls-2,.cls-3{fill:#b8131a;}.cls-3{stroke:#b8131a;stroke-miterlimit:10;stroke-width:0.75px;}</style><linearGradient id="linear-gradient" x1="84.98" y1="122.06" x2="244.1" y2="122.06" gradientUnits="userSpaceOnUse"><stop offset="0" stop-color="#fff" stop-opacity="0"/><stop offset="0.13" stop-color="#f3d6d8" stop-opacity="0.17"/><stop offset="0.49" stop-color="#d36e72" stop-opacity="0.61"/><stop offset="0.74" stop-color="#c02c33" stop-opacity="0.89"/><stop offset="0.87" stop-color="#b8131a"/></linearGradient></defs><g id="Layer_2" data-name="Layer 2"><g id="Layer_1-2" data-name="Layer 1"><path d="M322.75,77.31c-2.08-5.25-6.61-8.36-11.6-8.36-7.65,0-12.83,6.54-12.83,14,0,7.78,5.31,14.26,12.89,14.26,4.86,0,9-2.72,11.54-8.1h12.83a25.28,25.28,0,0,1-42.12,11.66c-5.19-5.05-7.39-11.14-7.39-18.4,0-12.7,10.95-24.17,24.69-24.17a24.33,24.33,0,0,1,16.72,5.9c4.54,3.88,7.26,8.29,8.1,13.22Z"/><path d="M361.89,107.05V87.29c0-4.67-1.81-7.33-5.77-7.33s-6,2.4-6,6.87v20.22H339.34V59.1H350.1V74.52c1.55-2.92,5-4.67,9.33-4.67,8.23,0,13.22,5.19,13.22,14.58v22.62Z"/><path d="M378.09,67.26V59.1h10.76v8.16Zm0,39.79v-36h10.76v36Z"/><path d="M416.87,107.05v-20c0-4.86-1.68-7.13-5.64-7.13-4.34,0-6.15,2.4-6.15,7.26v19.83H394.32v-36h10v3.83h.13c2.27-3.7,5.45-5.06,9.79-5.06,6.48,0,13.35,3.63,13.35,14.26v22.94Z"/><path d="M460,107.05v-3.89h-.13c-1.56,3.18-5.84,5.12-10.57,5.12-10.62,0-18-8.36-18-19.24,0-10.63,7.71-19.19,18-19.19,4.41,0,8.49,1.75,10.57,5.06H460V71.08H470.7v36Zm0-18a9.13,9.13,0,0,0-9.14-9.14A9.17,9.17,0,1,0,460,89Z"/><path d="M337,145.49c0,12.9-9.47,25.53-25.6,25.53a25.12,25.12,0,0,1-25.47-25.14c0-14.52,11.73-24.69,25.66-24.69,10.82,0,21.26,7.32,24,17H321.84A11.76,11.76,0,0,0,311.28,132c-7.71,0-13.09,6.22-13.09,13.93,0,8,5.05,14.39,13.15,14.39,5.71,0,10-2.79,11.47-7.72H308.49v-9.78H337Z"/><path d="M341,170.05v-48h10.76v48Z"/><path d="M374.76,171.15c-10.95,0-19.38-8.1-19.38-19.11s8.62-19.12,19.38-19.12,19.38,8.1,19.38,19C394.14,163.18,385.58,171.15,374.76,171.15ZM383.38,152A8.86,8.86,0,0,0,374.7,143c-4.73,0-8.56,4.15-8.56,9.08a8.63,8.63,0,1,0,17.24,0Z"/><path d="M397.81,170.05v-48h10.75v14.84a13.38,13.38,0,0,1,10.24-4.09c9.33,0,17.89,7,17.89,19,0,11.08-7.07,19.44-18.15,19.44-4.34,0-8.68-2-10.3-5.05h-.13v3.82Zm28.12-18a8.88,8.88,0,1,0-17.76-.07c0,5.31,3.76,9.27,8.75,9.27A9,9,0,0,0,425.93,152Z"/><path d="M467.4,170.05v-3.89h-.12c-1.56,3.18-5.84,5.12-10.57,5.12-10.63,0-18-8.36-18-19.24,0-10.63,7.71-19.19,18-19.19,4.41,0,8.49,1.75,10.57,5.06h.12v-3.83h10.76v36Zm0-18a9.12,9.12,0,0,0-9.13-9.14A9.17,9.17,0,1,0,467.4,152Z"/><path d="M483.77,170.05v-48h10.76v48Z"/><path d="M538.33,136.09c-.52-3.43-1.94-4.66-4.34-4.66a4,4,0,0,0-4.21,3.76c0,2.85,2.59,4.14,7.84,6.41,10.56,4.54,13.22,8.36,13.22,14.65,0,9.26-6.35,14.71-16.72,14.71s-17.3-5.45-17.3-15.75v-1H529c.07,4,2,6.55,5.06,6.55a4.58,4.58,0,0,0,4.6-4.6c0-3.83-5.32-5.51-9.66-7.26-7.84-3.18-11.4-7.32-11.4-13.54,0-8.17,7.9-14.13,16.72-14.13a18.14,18.14,0,0,1,8.48,2c5.12,2.65,7.59,6.48,7.65,12.89Z"/><path d="M572.1,171.15c-11,0-19.38-8.1-19.38-19.11s8.62-19.12,19.38-19.12,19.37,8.1,19.37,19C591.47,163.18,582.92,171.15,572.1,171.15ZM580.72,152A8.86,8.86,0,0,0,572,143c-4.73,0-8.55,4.15-8.55,9.08a8.63,8.63,0,1,0,17.24,0Z"/><path d="M618,170.05v-3.82h-.13c-1.55,3.3-4.4,5-9.26,5-7.59,0-13.87-4.54-13.87-14.78V134.08h10.76v20.16c0,4.73,1.68,6.93,5.76,6.93s6.16-2.72,6.16-7.13v-20h10.76v36Z"/><path d="M636.25,170.05v-27.8h-5.31v-8.17h5.31v-12H647v12h5.19v8.17H647v27.8Z"/><path d="M677.4,170.05V150.29c0-4.67-1.81-7.33-5.76-7.33s-6,2.4-6,6.87v20.22H654.85v-48h10.76v15.42c1.56-2.92,5-4.67,9.33-4.67,8.23,0,13.22,5.19,13.22,14.58v22.62Z"/><path d="M713.05,170.05v-48h16.2c5.12-.07,8.94.64,11.47,1.81,5.18,2.4,8.42,7.91,8.42,14.39,0,8.87-4.92,16.72-18.66,16.72h-5.7v15Zm17-25.79c4.93,0,7.39-1.69,7.39-5.77,0-3.89-2.4-5.64-7.84-5.64h-4.79v11.41Z"/><path d="M752.38,170.05v-36h10.11v3.83h.13c1.88-3.83,4.86-5.06,9-5.06v10.83c-6.42.06-8.49,2.46-8.49,6.54v19.83Z"/><path d="M792.63,171.15c-11,0-19.38-8.1-19.38-19.11s8.62-19.12,19.38-19.12S812,141,812,151.91C812,163.18,803.45,171.15,792.63,171.15ZM801.24,152a8.85,8.85,0,0,0-8.68-9.08c-4.73,0-8.55,4.15-8.55,9.08a8.63,8.63,0,1,0,17.23,0Z"/><path d="M809.6,183.27v-8.16h.78c3.76,0,4.47-1.43,4.47-5.12V134.08h10.76v35.58c0,9.46-2.53,13.61-14.06,13.61Zm5.25-53V122.1h10.76v8.16Z"/><path d="M839.93,155.34c.59,4.08,4,6.8,8.43,6.8a7.56,7.56,0,0,0,6.54-3.37h11c-3.44,7.85-10,12.45-17.56,12.45a19,19,0,0,1-19.06-19.06c0-10.36,8.3-19.31,18.86-19.31,10.76,0,19,8.49,19,19.64a13.32,13.32,0,0,1-.26,2.85Zm16.46-7.26c-.84-3.69-4.08-6.15-8.23-6.15a8,8,0,0,0-8.1,6.15Z"/><path d="M897.35,148a8.27,8.27,0,0,0-8-5c-4.92,0-8.29,4.08-8.29,9.14,0,5.24,3.56,9.13,8.55,9.13a8.21,8.21,0,0,0,7.78-4.79H908.3A19.31,19.31,0,0,1,870.2,152a18.89,18.89,0,0,1,18.85-19.12c9.47,0,17.18,6,19.19,15.1Z"/><path d="M915,170.05v-27.8h-5.32v-8.17H915v-12h10.75v12h5.19v8.17h-5.19v27.8Z"/><path class="cls-1" d="M244.1,122.06c0,1.67,0,3.31-.09,5,0,.54,0,1.08-.07,1.62-.06,1.1-.13,2.18-.22,3.28H85v-19.7H243.72c.09,1.1.16,2.23.22,3.35,0,.52.05,1,.07,1.55C244.08,118.73,244.1,120.4,244.1,122.06Z"/><path class="cls-2" d="M46.37,131.93a75.52,75.52,0,0,0,5.35,19.73,77.12,77.12,0,0,0,34.05,37.52c2.17,1.18,4.41,2.25,6.7,3.22h0a75.45,75.45,0,0,0,19.72,5.35h0c1.43.18,2.88.31,4.33.42l.94.06c1.53.1,3.06.15,4.6.15s3.08,0,4.61-.15l.84,0c1.49-.11,3-.24,4.42-.43a74.92,74.92,0,0,0,19.73-5.35,76.75,76.75,0,0,0,40.73-40.75H170.27a56.78,56.78,0,0,1-16,16.88c-.86.6-1.74,1.18-2.64,1.73-1.29.8-2.64,1.53-4,2.23-.19.1-.38.23-.58.32l-.43.2a56.58,56.58,0,0,1-14.71,4.77c-1.13.2-2.28.33-3.43.46a51.66,51.66,0,0,1-13,0c-1.11-.13-2.22-.24-3.32-.44h0a56.75,56.75,0,0,1-38.33-26.15c-.65-1-1.26-2.09-1.83-3.17a56.39,56.39,0,0,1-4.19-10.25,51.11,51.11,0,0,1-1.5-6.3c-.13-.69-.19-1.4-.29-2.1s-.23-1.53-.3-2.31c0-.53-.08-1.07-.11-1.6-.09-1.28-.17-2.56-.17-3.86a56.23,56.23,0,0,1,.86-9.86h0a56,56,0,0,1,7.53-19.74,56.69,56.69,0,0,1,58.06-26.13,56.19,56.19,0,0,1,19.74,7.51,57,57,0,0,1,18.62,18.62h22.11a76.77,76.77,0,0,0-40.73-40.72,75.25,75.25,0,0,0-19.74-5.38,77.47,77.47,0,0,0-19.72,0,75.32,75.32,0,0,0-19.75,5.38A76.79,76.79,0,0,0,51.73,92.46a74.82,74.82,0,0,0-5.35,19.74H20.22c0-.07,0-.14,0-.21A102.12,102.12,0,0,1,92.67,24a100.39,100.39,0,0,1,19.74-3.85,97.56,97.56,0,0,1,9.85-.45h0a94,94,0,0,1,9.83.5,100.27,100.27,0,0,1,19.72,3.91,102.77,102.77,0,0,1,68.22,68.52l20.47,0a122.42,122.42,0,0,0-88.65-89A116.64,116.64,0,0,0,132.18.43c-3.26-.3-6.54-.43-9.87-.43s-6.59.11-9.87.38a119.06,119.06,0,0,0-19.73,3.2,122.42,122.42,0,0,0-89,88.64A116.81,116.81,0,0,0,.43,111.94c0,.09,0,.17,0,.26h0c-.07.86-.11,1.74-.16,2.61-.14,2.32-.24,4.65-.24,7v.25c0,.52,0,1,0,1.54,0,1.09,0,2.17.07,3.25.06,1.7.16,3.39.3,5.08Z"/><path class="cls-2" d="M244.1,120.94c0-1.56,0-3.11-.13-4.65,0-.24,0-.49,0-.73,0-.71-.09-1.41-.14-2.12,0-.33,0-.66-.06-1h0c0-.08,0-.17,0-.25H223.91c.28,2.84.41,5.72.44,8.62,0,.41,0,.82,0,1.23v.2c0,3.27-.16,6.48-.47,9.65,0,.07,0,.16,0,.23a102.1,102.1,0,0,1-72.43,87.94,99.67,99.67,0,0,1-19.74,3.85,97.43,97.43,0,0,1-9.85.45,94.67,94.67,0,0,1-9.87-.5A99.54,99.54,0,0,1,92.27,220,102.67,102.67,0,0,1,24,151.45l-20.46,0a122.42,122.42,0,0,0,88.64,89,116.82,116.82,0,0,0,19.72,3.29c3.26.29,6.55.42,9.88.42s6.58-.11,9.84-.38a120,120,0,0,0,19.75-3.19,122.43,122.43,0,0,0,89-88.65,116.48,116.48,0,0,0,3.29-19.72c0-.09,0-.18,0-.27.09-1.1.16-2.18.22-3.28,0-.54.05-1.08.07-1.62.09-1.57.11-3.13.11-4.7v-.5C244.12,121.52,244.1,121.23,244.1,120.94Z"/><path class="cls-3" d="M528.39,91.73h-4.52V87.85h-14v19.24h-4.52V87.85h-14l-.11,4.1h-4.52V66.67h18.62V56.21H510l-.11,10.46h18.54Zm-23-8.06V70.85h-14.1V83.67Zm18.48,0V70.85h-14V83.67Z"/><path class="cls-3" d="M586,65.3H563.23v5.07h18.95v31.81a3.47,3.47,0,0,1-1.47,3.12,5.31,5.31,0,0,1-2.93,1h-6.72L570,101.9l4.54.14c2.21,0,3.32-.7,3.32-2.09V74.56h-9l3,1.81c-1.32,3.49-2.71,5.93-4.15,7.3h6.85v4.18H563.23v3.54h12.4v4.16h-12.4v9.72h-4.35V95.55H546.56V91.39h12.32V87.85H547.54V83.67h7.08a13.07,13.07,0,0,0-5.94-6.94l4.1-2q4.85,3.72,6.1,7.7l-3.07,1.25h6.56a24.31,24.31,0,0,0,5.6-9.11H544.16v32.92h-4.35V70.37h19.07V65.3H536.05V61.12h22.83V56h4.35v5.13H586Z"/><path class="cls-3" d="M610.82,88.88l-17.06,5.89a25.16,25.16,0,0,1-2.06-4.19q5.82-1.64,8.17-2.45V66.83h-7.25V62.68h17.61v4.15h-6V86.54q4.51-1.7,6.63-2.28Zm17.59-1.78a16.47,16.47,0,0,1-1.35,5.32A18.74,18.74,0,0,1,622,99.34a24.75,24.75,0,0,1-8,5,48,48,0,0,1-10,2.46l-2-4.3q9.93-.53,16-5.05t6.16-12.81l.11-10.21,4.13.28Zm13-24.2H627.88A42.36,42.36,0,0,1,626,68h12.27V95h-4.35V72.21h-16V96.08h-4.35V68h8c.93-2.21,1.59-3.92,2-5.13H611.21V59h30.22Zm1.64,40.81c-1,1.29-1.93,2.39-2.73,3.32a33,33,0,0,0-13.77-10l2.12-3.38Q638,97.28,643.07,103.71Z"/><path class="cls-3" d="M686,107.08h-4.52v-5h-23v5h-4.51V60.67h32Zm-4.52-34.59V64.82h-23v7.67Zm0,12.32V76.64h-23v8.17Zm0,13V89h-23v8.78Z"/></g></g></svg>