<svg xmlns="http://www.w3.org/2000/svg" xmlns:xlink="http://www.w3.org/1999/xlink" viewBox="0 0 439.54 439.54"><defs><style>.cls-1{fill:url(#linear-gradient);}.cls-2{fill:#fff;}</style><linearGradient id="linear-gradient" x1="153" y1="219.77" x2="439.5" y2="219.77" gradientUnits="userSpaceOnUse"><stop offset="0" stop-color="#fff" stop-opacity="0"/><stop offset="0.31" stop-color="#fff" stop-opacity="0.4"/><stop offset="0.58" stop-color="#fff" stop-opacity="0.72"/><stop offset="0.78" stop-color="#fff" stop-opacity="0.92"/><stop offset="0.87" stop-color="#fff"/></linearGradient></defs><g id="Layer_2" data-name="Layer 2"><g id="Layer_1-2" data-name="Layer 1"><path class="cls-1" d="M439.5,219.77c0,3-.05,5.95-.17,8.91l-.12,2.91c-.12,2-.24,3.93-.4,5.91H153V202H438.81c.16,2,.28,4,.4,6l.12,2.79C439.45,213.78,439.5,216.77,439.5,219.77Z"/><path class="cls-2" d="M83.49,237.54a136.17,136.17,0,0,0,9.63,35.51,138.7,138.7,0,0,0,61.31,67.56q5.87,3.18,12.06,5.8h0A136.08,136.08,0,0,0,202,356v0c2.58.32,5.18.55,7.8.74.56,0,1.12.09,1.69.12,2.75.17,5.51.27,8.29.27s5.54-.1,8.29-.27l1.53-.1c2.67-.19,5.32-.43,7.95-.76a135.27,135.27,0,0,0,35.51-9.64A138.15,138.15,0,0,0,346.39,273H306.57a101.74,101.74,0,0,1-28.76,30.4q-2.32,1.62-4.74,3.11c-2.34,1.45-4.77,2.77-7.22,4-.36.19-.69.41-1.05.58s-.53.22-.78.35a101.28,101.28,0,0,1-26.48,8.59c-2,.37-4.11.59-6.17.83a92.18,92.18,0,0,1-23.39,0c-2-.23-4-.44-6-.8v0a100.75,100.75,0,0,1-35.51-13.55A102.07,102.07,0,0,1,133,273q-1.74-2.81-3.3-5.71a100.58,100.58,0,0,1-7.53-18.45,90,90,0,0,1-2.71-11.34c-.23-1.25-.33-2.52-.51-3.78s-.42-2.77-.55-4.17c-.09-1-.14-1.92-.2-2.87-.16-2.3-.3-4.61-.3-6.95A101,101,0,0,1,119.43,202h0A101.2,101.2,0,0,1,133,166.47a102.07,102.07,0,0,1,104.54-47A101.2,101.2,0,0,1,273.07,133a102.85,102.85,0,0,1,33.52,33.52h39.8a138.28,138.28,0,0,0-73.32-73.32,136.15,136.15,0,0,0-35.55-9.68,140.05,140.05,0,0,0-35.51,0,136.15,136.15,0,0,0-35.55,9.68,138.21,138.21,0,0,0-73.32,73.32A134.37,134.37,0,0,0,83.5,202H36.41l0-.38A183.85,183.85,0,0,1,166.85,43.28a180.38,180.38,0,0,1,35.55-6.92,170.89,170.89,0,0,1,17.73-.81h.08a169.39,169.39,0,0,1,17.69.89,180,180,0,0,1,35.51,7A185.06,185.06,0,0,1,396.25,166.85l36.85.08A220.44,220.44,0,0,0,273.49,6.68,210,210,0,0,0,238,.77C232.11.24,226.2,0,220.21,0s-11.86.2-17.77.69a213.65,213.65,0,0,0-35.51,5.75A220.41,220.41,0,0,0,6.68,166,209.09,209.09,0,0,0,.77,201.55l0,.46h0c-.13,1.56-.2,3.13-.29,4.69C.17,210.88,0,215.08,0,219.32c0,.12,0,.24,0,.36s0,.06,0,.09c0,.93.05,1.84.06,2.77,0,2,0,3.91.11,5.85.12,3.06.3,6.1.55,9.14H83.49Z"/><path class="cls-2" d="M439.5,217.74c0-2.79-.1-5.58-.23-8.37,0-.43,0-.87-.06-1.3-.08-1.29-.17-2.55-.25-3.83,0-.58-.06-1.18-.11-1.76h0l0-.44H403.14c.5,5.1.75,10.28.8,15.52,0,.74.05,1.47.05,2.21v.36q0,8.81-.85,17.37c0,.12,0,.29,0,.41A183.94,183.94,0,0,1,272.69,396.26a181.11,181.11,0,0,1-35.55,6.92,171,171,0,0,1-17.74.81,173.88,173.88,0,0,1-17.77-.89,180.86,180.86,0,0,1-35.51-7.05A184.9,184.9,0,0,1,43.28,272.69L6.44,272.6A220.42,220.42,0,0,0,166,432.86a210.08,210.08,0,0,0,35.51,5.91c5.87.52,11.78.77,17.77.77s11.87-.21,17.74-.69a214.66,214.66,0,0,0,35.55-5.75A220.43,220.43,0,0,0,432.86,273.5,211.09,211.09,0,0,0,438.77,238c0-.16,0-.33,0-.49.16-2,.28-3.92.4-5.91l.12-2.91c.17-2.84.21-5.63.21-8.47v-.89C439.54,218.79,439.5,218.27,439.5,217.74Z"/></g></g></svg>